<?xml version="1.0" encoding="UTF-8"?>
<svg id="Layer_2" data-name="Layer 2" xmlns="http://www.w3.org/2000/svg" viewBox="0 0 440.95 100.02">
  <defs>
    <style>
      .cls-1 {
        fill: #231f20;
      }

      .cls-2 {
        fill: #3a51a3;
      }
    </style>
  </defs>
  <g id="Layer_1-2" data-name="Layer 1">
    <path class="cls-1" d="M101.97,11.28l-3.83-11.28h79.16v11.28h-31.24v88.72h-12.71V11.28h-31.38Z"/>
    <path class="cls-1" d="M156.06,100V24.84h11.7v11.56h.81c1.39-3.81,3.87-6.87,7.43-9.18s7.59-3.46,12.07-3.46c.9,0,1.96.02,3.19.07,1.23.04,2.21.09,2.92.13v12.17c-.36-.09-1.25-.22-2.69-.4-1.44-.18-2.96-.27-4.57-.27-3.59,0-6.8.75-9.65,2.25-2.85,1.5-5.08,3.56-6.69,6.18s-2.42,5.64-2.42,9.04v47.06h-12.1,0Z"/>
    <path class="cls-1" d="M222.35,100c-5,0-9.4-1.04-13.18-3.12-3.79-2.08-6.73-5.23-8.83-9.44-2.1-4.21-3.15-9.47-3.15-15.78V23.97h11.95v46.68c0,5.78,1.51,10.3,4.52,13.57,3.01,3.27,7.11,4.9,12.29,4.9,3.54,0,6.72-.78,9.53-2.35,2.81-1.57,5.04-3.86,6.67-6.88,1.64-3.02,2.46-6.66,2.46-10.91V23.98h12.02v76.03h-11.56v-19.14h1.59c-2.3,7.03-5.57,11.98-9.8,14.84-4.23,2.87-9.07,4.3-14.51,4.3h0Z"/>
    <path class="cls-1" d="M284.9,100c-5.06,0-9.55-.74-13.49-2.21-3.93-1.47-7.18-3.66-9.73-6.56s-4.26-6.46-5.14-10.68l11.28-2.7c1.06,4.04,3.04,7.01,5.97,8.9s6.58,2.84,10.98,2.84c5.14,0,9.24-1.1,12.3-3.3s4.58-4.81,4.58-7.85c0-2.55-.89-4.67-2.67-6.36s-4.5-2.96-8.14-3.79l-12.27-2.9c-6.68-1.58-11.65-4.03-14.9-7.35-3.25-3.32-4.88-7.57-4.88-12.76,0-4.22,1.19-7.95,3.56-11.18s5.62-5.76,9.73-7.58c4.11-1.82,8.78-2.74,14.01-2.74s9.35.76,12.89,2.28,6.42,3.61,8.64,6.27c2.22,2.66,3.88,5.73,4.98,9.2l-10.75,2.77c-1.01-2.64-2.69-5.03-5.05-7.19-2.35-2.15-5.9-3.23-10.65-3.23-4.4,0-8.06,1.01-10.98,3.03s-4.39,4.57-4.39,7.65c0,2.73.99,4.91,2.97,6.56s5.12,2.98,9.43,3.99l11.15,2.64c6.68,1.58,11.63,4.03,14.84,7.35,3.21,3.32,4.81,7.51,4.81,12.56,0,4.31-1.22,8.14-3.66,11.51-2.44,3.36-5.85,6.01-10.22,7.95-4.37,1.93-9.44,2.9-15.2,2.9v-.02Z"/>
    <path class="cls-1" d="M347.96,24.94v10.21h-38.32v-10.21h38.32ZM320.77,7.31h11.94v72.54c0,3.32.67,5.74,2.02,7.26s3.59,2.29,6.73,2.29c.75,0,1.71-.09,2.88-.27s2.24-.35,3.22-.53l2.45,10.08c-1.24.44-2.64.77-4.21.99s-3.13.33-4.67.33c-6.41,0-11.4-1.69-14.99-5.07s-5.37-8.1-5.37-14.16V7.3h0Z"/>
    <path class="cls-1" d="M340.82,100L377.01,0h14.72l36.66,100h-13.38l-21.14-59.33c-1.29-3.67-2.8-8.24-4.52-13.72s-3.8-12.47-6.25-20.97h2.41c-2.41,8.59-4.49,15.67-6.25,21.24s-3.22,10.06-4.38,13.46l-20.54,59.33h-13.52Z"/>
    <rect class="cls-1" x="359.02" y="60.94" width="51.17" height="11.14"/>
    <path class="cls-1" d="M440.95,0v100h-12.51V0h12.51Z"/>
    <g>
      <polygon class="cls-2" points="6.67 26.67 0 33.34 33.34 66.67 50 83.34 50 26.67 6.67 26.67"/>
      <polygon class="cls-2" points="100 0 33.34 0 11.11 22.22 55.56 22.22 55.56 88.89 66.67 100 77.78 88.89 77.78 22.22 122.22 22.22 100 0"/>
      <polygon class="cls-2" points="126.67 26.67 100 26.56 83.34 26.56 83.34 83.34 100 66.56 133.34 33.34 126.67 26.67"/>
    </g>
  </g>
</svg>